<?xml version="1.0" encoding="UTF-8" standalone="no"?>
<svg
   xmlns:svg="http://www.w3.org/2000/svg"
   xmlns="http://www.w3.org/2000/svg"
   xmlns:xlink="http://www.w3.org/1999/xlink"
   version="1.1"
   width="161"
   height="133"
   id="svg2">
  <g
     id="g8"
     transform="scale(1.2,1)">
    <path
       d="M 50,1 1,50 v 50 l 16,16 -17,17 h 18 l 9,-9 9,9 H 52 L 19,100 V 68 L 35,52 v 50 l 15,15 H 68 V 99 H 65 V 89 H 61 V 99 H 57 V 89 h -4 v 11 L 36,83 53,66 v 11 h 4 V 67 h 4 v 10 h 4 V 67 h 3 V 1 Z m 3,34 h 10 v 8 h 2 v 8 h -4 v -6 h -6 v 6 h -4 v -8 h 2"
       style="fill:#ff4400"
       id="path4" />
    <use
       xlink:href="#path4"
       transform="matrix(-1,0,0,1,134,0)"
       id="use6" />
  </g>
</svg>
